<?xml version="1.0" encoding="UTF-8" standalone="no"?><!DOCTYPE svg PUBLIC "-//W3C//DTD SVG 1.1//EN" "http://www.w3.org/Graphics/SVG/1.1/DTD/svg11.dtd"><svg width="100%" height="100%" viewBox="0 0 1850 1350" version="1.1" xmlns="http://www.w3.org/2000/svg" xmlns:xlink="http://www.w3.org/1999/xlink" xml:space="preserve" xmlns:serif="http://www.serif.com/" style="fill-rule:evenodd;clip-rule:evenodd;stroke-linejoin:round;stroke-miterlimit:2;"><g><path d="M74.448,1324.92l-6.738,-0c-8.301,-0 -16.943,-1.905 -25.928,-5.713c-25.488,-10.84 -38.232,-33.301 -38.232,-67.383l-0,-7.91c-0,-10.45 1.807,-20.215 5.42,-29.297c7.324,-18.946 20.508,-31.543 39.551,-37.793c8.593,-2.832 19.043,-4.248 31.347,-4.248c12.305,-0 22.803,2.295 31.494,6.885c8.692,4.589 13.038,10.595 13.038,18.017c-0,5.274 -1.27,9.229 -3.809,11.865c-2.539,2.637 -5.811,3.955 -9.814,3.955c-4.004,0 -10.45,-2.099 -19.336,-6.298c-8.887,-4.2 -15.186,-6.299 -18.897,-6.299c-10.84,-0 -18.725,3.979 -23.657,11.938c-4.932,7.959 -7.398,19.776 -7.398,35.449c0,15.674 3.443,27.613 10.328,35.816c6.884,8.203 16.577,12.305 29.077,12.305c5.273,-0 11.426,-1.05 18.457,-3.15c7.031,-2.099 12.207,-3.149 15.527,-3.149c7.031,-0 10.547,3.271 10.547,9.814l-0,2.49c-0,4.981 -5.664,10.01 -16.992,15.088c-11.328,5.078 -22.656,7.618 -33.985,7.618Z" style="fill:#fff;fill-rule:nonzero;"/><path d="M173.618,1177.11l5.127,-0c10.352,-0 17.481,3.32 21.387,9.961c1.27,2.148 2.515,3.222 3.735,3.222c1.221,0 3.687,-1.172 7.398,-3.515c3.711,-2.344 7.617,-4.517 11.719,-6.519c4.101,-2.002 9.375,-3.003 15.82,-3.003c6.445,0 11.255,1.441 14.429,4.322c3.173,2.88 4.76,6.445 4.76,10.693c0,4.248 -1.367,8.35 -4.101,12.305c-2.735,3.955 -6.299,5.932 -10.694,5.932l-18.017,-1.904c-3.027,-0 -6.568,1.269 -10.62,3.809c-4.053,2.539 -7.3,6.542 -9.741,12.011c-2.442,5.469 -3.663,14.038 -3.663,25.708c0,11.67 1.319,22.486 3.955,32.447c2.637,9.765 3.956,17.382 3.956,22.851c-0,10.938 -10.01,16.406 -30.03,16.406l-2.783,0c-13.574,0 -20.361,-5.121 -20.361,-15.365c-0,-3.024 1.001,-7.536 3.003,-13.536c2.002,-5.999 3.222,-10.926 3.662,-14.778c0.439,-3.855 0.659,-14.66 0.659,-32.415c-0,-17.756 -0.342,-28.561 -1.025,-32.414c-0.684,-3.854 -2.1,-7.854 -4.248,-12c-2.149,-4.146 -3.223,-7.975 -3.223,-11.488c-0,-3.512 1.66,-6.512 4.98,-8.999c3.321,-2.488 7.959,-3.731 13.916,-3.731Z" style="fill:#fff;fill-rule:nonzero;"/><path d="M370.933,1225.6l-0,-5.859c-0,-5.664 -2.546,-10.718 -7.638,-15.161c-5.09,-4.444 -10.622,-6.665 -16.594,-6.665l-4.406,-0c-8.223,-0 -15.125,3.173 -20.707,9.521c-5.58,6.348 -8.37,13.428 -8.37,21.24l-0,2.344c-0,2.93 1.904,4.395 5.713,4.395l3.662,0.439l9.228,0l0.733,-0.146l26.807,-1.465l3.076,-0.293c5.664,-0 8.496,-2.783 8.496,-8.35Zm26.074,26.66c-8.105,3.223 -23.901,4.834 -47.388,4.834c-23.486,0 -35.229,3.516 -35.229,10.547c-0,9.277 3.564,16.553 10.693,21.826c7.129,5.274 17.285,7.91 30.469,7.91c5.078,0 11.523,-1.269 19.336,-3.808c7.812,-2.539 13.916,-3.809 18.31,-3.809c5.372,0 8.057,4.297 8.057,12.891c0,5.469 -5.884,10.693 -17.651,15.674c-11.768,4.98 -23.169,7.47 -34.204,7.47l-3.37,0c-12.011,0 -22.583,-1.831 -31.713,-5.493c-9.131,-3.662 -16.382,-8.276 -21.753,-13.843c-5.371,-5.566 -9.79,-12.988 -13.257,-22.265c-3.467,-9.277 -5.2,-19.58 -5.2,-30.908l-0,-3.516c-0,-23.047 5.81,-41.211 17.431,-54.492c6.153,-7.031 13.819,-12.427 22.998,-16.187c9.18,-3.759 18.848,-5.639 29.004,-5.639l6.885,-0c6.934,-0 14.16,1.367 21.68,4.101c14.55,5.274 24.658,15.625 30.322,31.055c2.832,7.715 4.248,14.99 4.248,21.826l-0,3.223c-0,9.863 -3.223,16.064 -9.668,18.603Z" style="fill:#fff;fill-rule:nonzero;"/><path d="M498.228,1298.55c5.468,0 10.4,-2.197 14.795,-6.591c4.394,-4.395 6.591,-8.741 6.591,-13.038c0.196,-1.171 0.293,-2.002 0.293,-2.49l0.293,-5.127l0,-8.571c0,-6.2 -2.629,-9.3 -7.887,-9.3l-7.743,0c-11.198,0 -19.962,1.978 -26.292,5.933c-6.329,3.955 -9.494,9.204 -9.494,15.747l0,3.515c0,5.372 1.734,10.035 5.201,13.99c3.466,3.955 7.641,5.932 12.524,5.932l4.248,0.44l3.369,-0c1.758,-0.293 3.125,-0.44 4.102,-0.44Zm68.261,11.28c0,8.203 -6.64,12.304 -19.921,12.304c-6.641,0 -12.5,-1.342 -17.579,-4.028c-5.078,-2.686 -9.57,-4.028 -13.476,-4.028c-0.293,-0 -5.127,1.782 -14.502,5.346c-9.375,3.565 -18.018,5.347 -25.928,5.347c-13.281,0 -24.048,-3.76 -32.3,-11.279c-8.252,-7.52 -12.378,-17.334 -12.378,-29.444l0,-3.515c0,-27.539 21.241,-43.262 63.721,-47.168c7.715,-0.684 13.086,-1.514 16.113,-2.49c5.762,-1.954 8.643,-6.226 8.643,-12.818c0,-6.592 -2.686,-11.743 -8.057,-15.454c-3.222,-2.246 -7.519,-3.369 -12.89,-3.369c-5.371,-0 -13.159,2.222 -23.364,6.665c-10.206,4.443 -17.408,6.665 -21.607,6.665c-4.199,-0 -7.471,-1.465 -9.814,-4.395c-2.344,-2.929 -3.516,-6.494 -3.516,-10.693c-0,-7.129 5.737,-13.086 17.212,-17.871c11.475,-4.785 23.999,-7.178 37.573,-7.178c25.977,0 43.652,6.739 53.027,20.215c4.2,5.957 6.91,12.671 8.13,20.142c1.221,7.47 1.831,20.019 1.831,37.646c0,17.627 0.361,28.345 1.081,32.154c0.721,3.808 2.235,7.983 4.541,12.524c2.307,4.541 3.46,8.423 3.46,11.645l0,3.077Z" style="fill:#fff;fill-rule:nonzero;"/><path d="M616.88,1304.7c-5.371,-9.082 -8.057,-25.733 -8.057,-49.952c0,-24.218 -0.83,-39.453 -2.49,-45.703c-0.879,-3.418 -3.711,-6.738 -8.496,-9.961c-4.785,-3.222 -7.178,-7.324 -7.178,-12.304c0,-4.981 1.514,-8.496 4.541,-10.547c0.684,-0.488 2.637,-1.587 5.86,-3.296c3.222,-1.709 5.2,-3.076 5.932,-4.102c0.733,-1.025 2.198,-5.712 4.395,-14.062c2.197,-8.35 4.443,-14.16 6.738,-17.432c2.295,-3.271 5.591,-4.907 9.888,-4.907l2.49,0c5.567,0 9.668,1.758 12.305,5.273c1.367,1.856 2.783,6.446 4.248,13.77c1.465,7.324 3.467,12.451 6.006,15.381c2.539,2.93 7.837,5.444 15.893,7.544c8.057,2.099 12.085,5.493 12.085,10.18c0,4.688 -1.226,7.959 -3.678,9.815c-2.45,1.855 -7.255,3.564 -14.415,5.127c-7.158,1.562 -11.816,3.979 -13.973,7.251c-2.158,3.271 -3.237,12.329 -3.237,27.173l0,18.896c0,18.067 1.8,29.688 5.4,34.863c2.237,3.223 7.076,5.396 14.518,6.519c7.442,1.123 11.406,1.782 11.892,1.978c3.794,1.953 5.69,5.127 5.69,9.521l0,2.344c0,4.004 -2.661,7.397 -7.983,10.18c-5.322,2.784 -11.89,4.175 -19.702,4.175l-6.006,0c-14.746,0 -25.635,-5.908 -32.666,-17.724Z" style="fill:#fff;fill-rule:nonzero;"/><path d="M852.28,1306.9c0,8.691 -7.91,13.037 -23.73,13.037c-4.785,0 -9.717,-1.343 -14.795,-4.028c-5.078,-2.686 -8.203,-4.029 -9.375,-4.029l-15.527,6.006c-8.301,3.223 -15.821,4.834 -22.559,4.834l-3.955,0c-8.301,0 -15.869,-1.831 -22.705,-5.493c-6.836,-3.662 -12.061,-8.765 -15.674,-15.308c-5.273,-9.472 -7.91,-30.859 -7.91,-64.16c-0,-15.039 -0.244,-24.023 -0.732,-26.953c-0.489,-2.93 -1.661,-6.885 -3.516,-11.865c-1.856,-4.981 -2.783,-9.229 -2.783,-12.744c-0,-3.516 1.367,-6.104 4.101,-7.764c2.735,-1.66 7.471,-2.49 14.209,-2.49l3.955,-0c9.766,-0 16.016,3.32 18.75,9.961c1.661,4.004 2.491,19.873 2.491,47.607c-0,27.735 1.513,44.824 4.541,51.27c3.808,8.203 10.742,12.304 20.8,12.304c5.176,0 10.132,-1.318 14.869,-3.955c4.736,-2.636 8.227,-6.152 10.473,-10.546c3.613,-6.934 5.42,-21.192 5.42,-42.774c0,-9.961 -0.635,-19.385 -1.904,-28.271c-1.27,-8.887 -1.904,-15.137 -1.904,-18.75c-0,-10.743 8.544,-16.114 25.634,-16.114c8.399,0 13.282,3.223 14.649,9.668c0.39,1.856 0.586,15.625 0.586,41.309c-0,25.683 0.683,42.676 2.05,50.976c1.368,8.301 2.466,14.283 3.296,17.945c0.83,3.662 1.245,6.03 1.245,7.104l0,3.223Z" style="fill:#fff;fill-rule:nonzero;"/><path d="M903.843,1177.11l5.127,-0c10.351,-0 17.48,3.32 21.387,9.961c1.269,2.148 2.514,3.222 3.735,3.222c1.221,0 3.687,-1.172 7.397,-3.515c3.711,-2.344 7.618,-4.517 11.719,-6.519c4.102,-2.002 9.375,-3.003 15.821,-3.003c6.445,0 11.254,1.441 14.428,4.322c3.174,2.88 4.761,6.445 4.761,10.693c-0,4.248 -1.367,8.35 -4.102,12.305c-2.734,3.955 -6.298,5.932 -10.693,5.932l-18.018,-1.904c-3.027,-0 -6.567,1.269 -10.62,3.809c-4.052,2.539 -7.299,6.542 -9.741,12.011c-2.441,5.469 -3.662,14.038 -3.662,25.708c0,11.67 1.318,22.486 3.955,32.447c2.637,9.765 3.955,17.382 3.955,22.851c0,10.938 -10.01,16.406 -30.029,16.406l-2.783,0c-13.575,0 -20.362,-5.121 -20.362,-15.365c0,-3.024 1.001,-7.536 3.003,-13.536c2.002,-5.999 3.223,-10.926 3.662,-14.778c0.44,-3.855 0.66,-14.66 0.66,-32.415c-0,-17.756 -0.342,-28.561 -1.026,-32.414c-0.683,-3.854 -2.099,-7.854 -4.248,-12c-2.148,-4.146 -3.223,-7.975 -3.223,-11.488c0,-3.512 1.661,-6.512 4.981,-8.999c3.32,-2.488 7.959,-3.731 13.916,-3.731Z" style="fill:#fff;fill-rule:nonzero;"/><path d="M1101.16,1225.6l0,-5.859c0,-5.664 -2.546,-10.718 -7.637,-15.161c-5.091,-4.444 -10.622,-6.665 -16.594,-6.665l-4.406,-0c-8.223,-0 -15.126,3.173 -20.707,9.521c-5.58,6.348 -8.37,13.428 -8.37,21.24l-0,2.344c-0,2.93 1.904,4.395 5.712,4.395l3.663,0.439l9.228,0l0.733,-0.146l26.806,-1.465l3.076,-0.293c5.664,-0 8.496,-2.783 8.496,-8.35Zm26.075,26.66c-8.106,3.223 -23.902,4.834 -47.388,4.834c-23.486,0 -35.23,3.516 -35.23,10.547c0,9.277 3.565,16.553 10.694,21.826c7.129,5.274 17.285,7.91 30.469,7.91c5.078,0 11.523,-1.269 19.335,-3.808c7.813,-2.539 13.917,-3.809 18.311,-3.809c5.371,0 8.057,4.297 8.057,12.891c-0,5.469 -5.884,10.693 -17.652,15.674c-11.767,4.98 -23.169,7.47 -34.204,7.47l-3.369,0c-12.012,0 -22.583,-1.831 -31.714,-5.493c-9.131,-3.662 -16.382,-8.276 -21.753,-13.843c-5.371,-5.566 -9.79,-12.988 -13.257,-22.265c-3.466,-9.277 -5.2,-19.58 -5.2,-30.908l0,-3.516c0,-23.047 5.811,-41.211 17.432,-54.492c6.152,-7.031 13.818,-12.427 22.998,-16.187c9.18,-3.759 18.848,-5.639 29.004,-5.639l6.885,-0c6.933,-0 14.16,1.367 21.679,4.101c14.551,5.274 24.658,15.625 30.323,31.055c2.832,7.715 4.248,14.99 4.248,21.826l-0,3.223c-0,9.863 -3.223,16.064 -9.668,18.603Z" style="fill:#fff;fill-rule:nonzero;"/><path d="M1169.13,1306.9l0,-5.127c0,-6.934 1.685,-11.841 5.054,-14.722c3.369,-2.881 8.227,-4.321 14.575,-4.321l5.127,0c1.465,0.293 2.637,0.439 3.516,0.439c4.589,0 8.13,1.465 10.62,4.395c2.49,2.93 3.735,6.787 3.735,11.572l0.293,1.319l0.147,3.076l-0,2.197c-0,12.891 -5.567,19.336 -16.7,19.336l-3.662,0.439l-3.808,0c-2.442,-0.488 -5.03,-0.732 -7.764,-0.732c-2.734,0 -5.273,-1.636 -7.617,-4.907c-2.344,-3.272 -3.516,-7.593 -3.516,-12.964Z" style="fill:#fff;fill-rule:nonzero;"/><path d="M1286.17,1322.57l-11.133,-0c-8.105,-0 -13.867,-1.465 -17.285,-4.395c-3.418,-2.929 -5.127,-7.324 -5.127,-13.183c0,-1.465 0.45,-4.444 1.351,-8.936l1.048,-4.541c2.6,-11.133 3.9,-19.873 3.9,-26.221l0,-60.498c0,-36.523 -0.144,-56.421 -0.432,-59.692c-0.287,-3.272 -1.679,-8.008 -4.175,-14.209c-2.495,-6.201 -3.743,-9.985 -3.743,-11.353l0,-2.49c0,-4.199 2.076,-7.031 6.226,-8.496c4.15,-1.465 11.182,-2.197 21.094,-2.197c9.912,-0 15.698,3.662 17.358,10.986l0,72.51c0,46.094 0.46,72.363 1.378,78.809c0.919,6.445 3.433,14.477 7.544,24.096c4.111,9.619 6.166,14.624 6.166,15.015c0,9.863 -8.057,14.795 -24.17,14.795Z" style="fill:#fff;fill-rule:nonzero;"/><path d="M1405.55,1300.89l2.93,0c9.082,0 16.455,-3.882 22.119,-11.645c5.664,-7.764 8.496,-17.164 8.496,-28.199l0.293,-3.076l-0,-14.062c-0,-13.575 -2.924,-24.756 -8.771,-33.545c-5.846,-8.789 -13.641,-13.184 -23.385,-13.184l-4.385,0c-9.354,0 -16.711,4.468 -22.071,13.403c-5.359,8.936 -8.039,21.509 -8.039,37.72c0,16.211 2.832,29.029 8.497,38.452c5.664,9.424 13.769,14.136 24.316,14.136Zm3.44,26.074l-2.634,0c-21.56,0 -39.119,-7.073 -52.68,-21.219c-11.609,-12.197 -17.413,-30.734 -17.413,-55.612l-0,-5.269c-0,-10.44 1.662,-20.391 4.985,-29.855c6.648,-18.634 19.015,-31.268 37.099,-37.903c9.092,-3.317 18.721,-4.976 28.888,-4.976l2.639,0c20.921,0 38.029,7.227 51.324,21.68c11.339,12.402 17.008,29.297 17.008,50.684l0,2.636c0,10.352 -1.561,20.703 -4.683,31.055c-5.951,19.922 -18.194,34.082 -36.731,42.48c-9.364,4.2 -18.631,6.299 -27.802,6.299Z" style="fill:#fff;fill-rule:nonzero;"/><path d="M1638.32,1188.39c-0,3.418 -2.588,10.425 -7.764,21.021c-5.176,10.595 -11.792,26.953 -19.849,49.072c-8.056,22.119 -14.233,37.646 -18.53,46.582c-4.297,8.935 -7.886,14.209 -10.767,15.82c-2.88,1.612 -7.397,2.417 -13.549,2.417c-6.153,0 -10.523,-0.854 -13.111,-2.563c-2.588,-1.709 -5.688,-5.957 -9.301,-12.744c-3.614,-6.788 -10.132,-23.145 -19.556,-49.073c-9.424,-25.927 -16.675,-43.261 -21.753,-52.002c-5.078,-8.74 -7.617,-15.478 -7.617,-20.214c-0,-4.737 1.391,-7.837 4.175,-9.302c2.783,-1.465 7.641,-2.198 14.575,-2.198l3.222,0c11.231,0 18.946,3.223 23.145,9.668c1.855,2.735 3.418,8.374 4.687,16.919c1.27,8.545 3.565,18.482 6.885,29.81c9.278,32.227 15.235,48.34 17.871,48.34c2.051,-0 8.155,-16.016 18.311,-48.047c3.125,-9.766 5.81,-20.337 8.056,-31.714c2.247,-11.377 3.467,-17.212 3.663,-17.505c2.441,-4.883 10.009,-7.324 22.705,-7.324c5.761,-0 9.619,0.586 11.572,1.758c1.953,1.172 2.93,4.053 2.93,8.642l-0,2.637Z" style="fill:#fff;fill-rule:nonzero;"/><path d="M1752.28,1225.6l0,-5.859c0,-5.664 -2.545,-10.718 -7.637,-15.161c-5.091,-4.444 -10.622,-6.665 -16.594,-6.665l-4.406,-0c-8.223,-0 -15.126,3.173 -20.707,9.521c-5.58,6.348 -8.37,13.428 -8.37,21.24l-0,2.344c-0,2.93 1.904,4.395 5.713,4.395l3.662,0.439l9.228,0l0.733,-0.146l26.806,-1.465l3.076,-0.293c5.664,-0 8.496,-2.783 8.496,-8.35Zm26.075,26.66c-8.106,3.223 -23.902,4.834 -47.388,4.834c-23.486,0 -35.23,3.516 -35.23,10.547c0,9.277 3.565,16.553 10.694,21.826c7.129,5.274 17.285,7.91 30.469,7.91c5.078,0 11.523,-1.269 19.336,-3.808c7.812,-2.539 13.916,-3.809 18.31,-3.809c5.371,0 8.057,4.297 8.057,12.891c-0,5.469 -5.884,10.693 -17.652,15.674c-11.767,4.98 -23.169,7.47 -34.204,7.47l-3.369,0c-12.012,0 -22.583,-1.831 -31.714,-5.493c-9.131,-3.662 -16.382,-8.276 -21.753,-13.843c-5.371,-5.566 -9.79,-12.988 -13.257,-22.265c-3.466,-9.277 -5.2,-19.58 -5.2,-30.908l0,-3.516c0,-23.047 5.811,-41.211 17.432,-54.492c6.152,-7.031 13.818,-12.427 22.998,-16.187c9.18,-3.759 18.848,-5.639 29.004,-5.639l6.885,-0c6.933,-0 14.16,1.367 21.679,4.101c14.551,5.274 24.659,15.625 30.323,31.055c2.832,7.715 4.248,14.99 4.248,21.826l-0,3.223c-0,9.863 -3.223,16.064 -9.668,18.603Z" style="fill:#fff;fill-rule:nonzero;"/><path d="M895.786,1062.5c0,0 -138.308,5.234 -211.196,-42.863c79.103,-12.225 146.178,-104.722 146.178,-232.508c-0,-164.601 -120.58,-250.673 -212.482,-250.673c-63.484,-0 -260.713,64.843 -218.172,330.665c-71.208,-60.846 -53.22,-413.783 70.129,-506.168c-1.584,-185.324 -202.875,-336.896 -202.875,-336.896c-0,-0 366.719,47.935 439.861,259.932c118.612,-48.336 174.041,29.135 139.051,151.068c-35.792,-70.381 -95.965,-88.359 -145.628,-24.898c-60.857,77.764 130.089,212.48 195.134,212.48c65.045,-0 255.805,-134.955 195.135,-212.48c-49.663,-63.461 -109.837,-45.483 -145.628,24.898c-34.99,-121.933 20.439,-199.404 139.051,-151.068c73.142,-211.997 439.861,-259.932 439.861,-259.932c-0,-0 -201.291,151.572 -202.875,336.896c123.349,92.385 141.336,445.322 70.128,506.168c42.542,-265.822 -154.688,-330.665 -218.171,-330.665c-91.902,-0 -212.482,86.072 -212.482,250.673c-0,127.786 67.075,220.283 146.178,232.508c-72.889,48.097 -211.197,42.863 -211.197,42.863Zm-273.621,-414.804c67.024,-0 123.259,61.601 123.259,139.433c0,77.831 -56.235,139.432 -123.259,139.432c-67.025,0 -123.26,-61.601 -123.26,-139.432c0,-77.832 56.235,-139.433 123.26,-139.433Zm-0,45.899c-43.715,0 -77.36,42.771 -77.36,93.534c-0,50.762 33.645,93.533 77.36,93.533c43.715,-0 77.36,-42.771 77.36,-93.533c-0,-50.763 -33.645,-93.534 -77.36,-93.534Zm547.243,-45.899c67.024,-0 123.259,61.601 123.259,139.433c0,77.831 -56.235,139.432 -123.259,139.432c-67.025,0 -123.26,-61.601 -123.26,-139.432c0,-77.832 56.235,-139.433 123.26,-139.433Zm-0,45.899c-43.715,0 -77.36,42.771 -77.36,93.534c-0,50.762 33.645,93.533 77.36,93.533c43.714,-0 77.36,-42.771 77.36,-93.533c-0,-50.763 -33.646,-93.534 -77.36,-93.534Z" style="fill:#fff;"/></g></svg>